<svg width="40" height="40" viewBox="0 0 40 40" fill="none" xmlns="http://www.w3.org/2000/svg">
<path d="M0.853809 19.7606C0.852871 23.1214 1.73787 26.4029 3.42068 29.2953L0.692871 39.1778L10.8854 36.526C13.7045 38.0488 16.8631 38.8467 20.0729 38.8469H20.0813C30.6774 38.8469 39.3029 30.2914 39.3074 19.7756C39.3094 14.68 37.3113 9.88834 33.681 6.28337C30.0513 2.67872 25.224 0.692523 20.0805 0.690197C9.48318 0.690197 0.85834 9.24523 0.853965 19.7606" fill="url(#paint0_linear_4002_2)"/>
<path d="M0.167188 19.7544C0.166094 23.2361 1.08281 26.635 2.82562 29.631L0 39.8677L10.558 37.1209C13.467 38.6947 16.7423 39.5245 20.0752 39.5257H20.0837C31.06 39.5257 39.9953 30.6625 40 19.7702C40.0019 14.4915 37.9319 9.5276 34.1719 5.79349C30.4114 2.05984 25.4114 0.00217054 20.0837 0C9.10562 0 0.171563 8.86201 0.167188 19.7544ZM6.45484 29.115L6.06062 28.4941C4.40344 25.8795 3.52875 22.8581 3.53 19.7557C3.53344 10.7022 10.9591 3.33643 20.09 3.33643C24.5119 3.33829 28.6675 5.04868 31.7931 8.15194C34.9186 11.2555 36.6384 15.3811 36.6373 19.769C36.6333 28.8225 29.2075 36.1891 20.0837 36.1891H20.0772C17.1064 36.1876 14.1928 35.396 11.6519 33.9L11.0472 33.5442L4.78188 35.1741L6.45484 29.115Z" fill="url(#paint1_linear_4002_2)"/>
<path d="M3.29934 29.5697L3.25007 29.7482L0.627426 39.2495L10.4471 36.6948L10.6149 36.6511L10.7675 36.7337C13.6119 38.2725 16.8152 39.0842 20.0752 39.0854C20.0752 39.0854 20.0753 39.0854 20.0753 39.0854H20.0837C30.8201 39.0854 39.5551 30.416 39.5597 19.77C39.5615 14.6092 37.5387 9.75772 33.8616 6.10595C30.1841 2.4546 25.2957 0.442486 20.0837 0.440317L3.29934 29.5697ZM3.29934 29.5697L3.20623 29.4096M3.29934 29.5697L3.20623 29.4096M3.20623 29.4096C1.50262 26.481 0.606435 23.1586 0.607504 19.7546M3.20623 29.4096L0.607504 19.7546M0.607504 19.7546C0.61178 9.10857 9.34542 0.440413 20.0836 0.440317L0.607504 19.7546ZM5.68872 28.7298L5.6889 28.7301L5.97842 29.1861L4.35744 35.0569L4.15439 35.7923L4.89273 35.6002L10.9813 34.0163L11.4285 34.2794C11.4285 34.2795 11.4285 34.2795 11.4286 34.2795C14.0377 35.8156 17.0283 36.6279 20.077 36.6295H20.0772H20.0837C29.4474 36.6295 37.0735 29.0689 37.0777 19.7692V19.7691C37.0788 15.2634 35.3118 11.0254 32.1034 7.83949L32.1034 7.83947C28.895 4.65404 24.6278 2.89803 20.0902 2.89612H20.09C10.7193 2.89612 3.09321 10.4556 3.08968 19.7555C3.0884 22.9412 3.98668 26.0445 5.68872 28.7298Z" stroke="black" stroke-opacity="0.1" stroke-width="0.880634"/>
<path d="M15.1061 11.4958C14.7332 10.6736 14.3409 10.657 13.9864 10.6426C13.6961 10.6302 13.3642 10.6311 13.0326 10.6311C12.7007 10.6311 12.1615 10.755 11.7057 11.2488C11.2495 11.7431 9.96387 12.9375 9.96387 15.3668C9.96387 17.7961 11.7471 20.144 11.9957 20.4738C12.2446 20.8029 15.4384 25.9477 20.4965 27.927C24.7003 29.5718 25.5557 29.2446 26.4681 29.1621C27.3806 29.08 29.4125 27.968 29.827 26.815C30.2418 25.6621 30.2418 24.6739 30.1175 24.4674C29.9931 24.2617 29.6612 24.1381 29.1636 23.8913C28.6659 23.6445 26.2192 22.4497 25.7631 22.2849C25.3068 22.1203 24.9751 22.0381 24.6432 22.5325C24.3114 23.0262 23.3584 24.1381 23.0679 24.4674C22.7778 24.7975 22.4873 24.8386 21.9898 24.5916C21.4918 24.3439 19.8892 23.8231 17.9878 22.1411C16.5084 20.8322 15.5096 19.2159 15.2193 18.7215C14.929 18.2279 15.1882 17.9603 15.4378 17.7142C15.6614 17.493 15.9356 17.1377 16.1846 16.8494C16.4328 16.5611 16.5156 16.3553 16.6815 16.026C16.8476 15.6964 16.7645 15.408 16.6403 15.1611C16.5156 14.9141 15.5486 12.4721 15.1061 11.4958Z" fill="white"/>
<defs>
<linearGradient id="paint0_linear_4002_2" x1="1931.42" y1="3849.45" x2="1931.42" y2="0.690197" gradientUnits="userSpaceOnUse">
<stop stop-color="#1FAF38"/>
<stop offset="1" stop-color="#60D669"/>
</linearGradient>
<linearGradient id="paint1_linear_4002_2" x1="2000" y1="3986.77" x2="2000" y2="0" gradientUnits="userSpaceOnUse">
<stop stop-color="#F9F9F9"/>
<stop offset="1" stop-color="white"/>
</linearGradient>
</defs>
</svg>
