<svg width="43" height="43" viewBox="0 0 43 43" fill="none" xmlns="http://www.w3.org/2000/svg">
<path fill-rule="evenodd" clip-rule="evenodd" d="M20.5731 0.107082C20.0369 0.284978 19.8503 0.425581 17.5158 2.41243C16.4068 3.35634 15.3914 4.19041 15.2594 4.26607C15.0708 4.37405 14.3199 4.41398 11.7547 4.45224C8.58191 4.49956 8.4784 4.50726 8.078 4.724C7.52858 5.02157 6.98645 5.58486 6.72749 6.12721C6.58778 6.42 6.3412 7.56499 5.99986 9.50636C5.70613 11.1767 5.41856 12.5433 5.33291 12.676C5.25004 12.8042 4.17655 13.7646 2.94731 14.8101C1.71817 15.8556 0.619229 16.8599 0.505254 17.0418C0.00259347 17.8439 -0.137114 18.8591 0.140765 19.6891C0.222382 19.9329 0.918713 21.2341 1.68821 22.5805C2.55757 24.1015 3.10526 25.1638 3.13455 25.3857C3.1621 25.5937 2.97324 26.9395 2.68249 28.6077C2.31589 30.7107 2.19903 31.5955 2.2432 31.9347C2.36735 32.8895 2.90794 33.7414 3.67821 34.1961C3.8954 34.3244 5.23487 34.8563 6.6548 35.3783C8.107 35.9122 9.35438 36.428 9.506 36.5575C9.65435 36.6839 10.4088 37.9007 11.1827 39.2612C11.9566 40.6218 12.7394 41.8913 12.9224 42.0824C13.1053 42.2734 13.4791 42.5489 13.7531 42.6946C14.184 42.9238 14.3613 42.9591 15.0673 42.9562C15.8603 42.9529 15.9593 42.9245 18.5514 41.9595C20.0188 41.4131 21.3496 40.9662 21.5088 40.9662C21.6681 40.9662 23.06 41.4309 24.602 41.9987C27.3572 43.0134 27.4176 43.0306 28.088 42.988C28.8875 42.9373 29.4817 42.6794 30.0168 42.1513C30.2318 41.9391 30.9679 40.7602 31.804 39.289C32.5858 37.9131 33.3469 36.6839 33.4952 36.5575C33.6469 36.428 34.8942 35.9122 36.3464 35.3783C37.7664 34.8563 39.1058 34.3244 39.323 34.1961C40.0933 33.7414 40.6339 32.8895 40.758 31.9347C40.8022 31.5955 40.6853 30.7107 40.3187 28.6077C40.028 26.9395 39.8391 25.5937 39.8667 25.3857C39.8961 25.1637 40.445 24.0992 41.3173 22.573C42.0891 21.2224 42.7912 19.8985 42.8776 19.631C43.1917 18.657 42.8841 17.3859 42.1516 16.6315C41.963 16.4373 40.8864 15.497 39.7591 14.5419C38.3767 13.3706 37.6693 12.7058 37.5858 12.4993C37.5178 12.331 37.2396 10.9225 36.9677 9.36946C36.4345 6.32458 36.3126 5.93821 35.6852 5.3019C34.9183 4.5243 34.8278 4.50716 31.1986 4.45224C28.7656 4.41544 27.9271 4.37191 27.757 4.27366C27.6334 4.2022 26.5552 3.31447 25.3612 2.30104C24.1672 1.2876 22.9982 0.36414 22.7636 0.248951C22.2325 -0.0117102 21.1438 -0.0822065 20.5731 0.107082ZM30.3584 15.6648C30.451 15.7759 30.5264 16.0246 30.5264 16.2195C30.5264 16.5565 30.2824 16.8199 25.2214 21.9459C20.0065 27.2278 19.907 27.3219 19.3694 27.4781C18.7849 27.6481 18.3136 27.6127 17.8039 27.3605C17.6454 27.2821 16.3816 26.0724 14.9953 24.6722C12.609 22.2619 12.4748 22.1073 12.4748 21.7676C12.4748 21.496 12.5363 21.3599 12.7278 21.2071C13.2481 20.7921 13.2897 20.822 15.9795 23.5369C17.873 25.448 18.5447 26.0685 18.7199 26.0685C18.8984 26.0685 20.1618 24.8447 24.1871 20.7726C27.0664 17.86 29.487 15.4526 29.5662 15.423C29.8022 15.3347 30.1788 15.4497 30.3584 15.6648Z" fill="#0D99FF"/>
</svg>
