<svg width="43" height="43" viewBox="0 0 43 43" fill="none" xmlns="http://www.w3.org/2000/svg">
<path fill-rule="evenodd" clip-rule="evenodd" d="M19.8744 0.184806C17.637 0.746237 15.4186 2.58729 13.7604 5.2589C13.2641 6.05861 13.2209 6.01215 14.9408 6.53226C16.8967 7.1237 18.8943 7.47237 20.3499 7.47639L21.0091 7.47826V3.73913V0L20.7894 0.00514133C20.6685 0.00794568 20.2567 0.0888043 19.8744 0.184806ZM21.9857 3.75343V7.50687L23.0844 7.44882C25.4909 7.32168 29.5793 6.31904 29.5417 5.8652C29.5201 5.60514 28.4854 4.11463 27.6883 3.19537C26.3723 1.67784 24.6888 0.57377 23.0968 0.183965C21.8496 -0.121335 21.9857 -0.558813 21.9857 3.75343ZM15.6866 0.751752C13.7451 1.27579 11.7376 2.1529 9.98053 3.245L9.15754 3.75652L10.0294 4.29607C10.5089 4.59287 11.2346 5.00959 11.642 5.22216L12.3829 5.60879L12.8945 4.78141C13.176 4.32636 13.6841 3.60069 14.0238 3.16882C14.6124 2.42062 16.0026 1.052 16.5108 0.72053C16.6418 0.635091 16.7297 0.547876 16.7062 0.526657C16.6825 0.505531 16.2237 0.606767 15.6866 0.751752ZM27.5482 1.66821C28.474 2.54943 28.9798 3.12526 29.5316 3.92609C29.9389 4.51734 30.3265 5.11672 30.3929 5.25815C30.4593 5.39958 30.5724 5.51522 30.6442 5.51522C30.8131 5.51522 32.3851 4.67943 33.1981 4.15735L33.8298 3.75175L33.0105 3.24379C31.0993 2.05848 29.2336 1.25915 27.0022 0.669398L26.3054 0.485339L27.5482 1.66821ZM7.27834 5.22674C3.52991 8.42978 1.03457 13.015 0.407587 17.8519C0.351139 18.2875 0.304945 18.908 0.304945 19.2307V19.8174H0.976073H1.6472L1.71127 19.4201C1.74642 19.2016 1.88569 18.702 2.02075 18.3099C2.97207 15.5468 5.75151 13.4807 8.7582 13.3014L9.64272 13.2486L9.91432 12.1162C10.2398 10.759 11.0029 8.49783 11.5257 7.34141L11.9045 6.50356L10.9033 5.97952C10.3527 5.69124 9.57758 5.24516 9.18088 4.98809C8.78418 4.73112 8.4115 4.49369 8.35262 4.4606C8.29373 4.42741 7.8103 4.77216 7.27834 5.22674ZM33.9019 4.92331C33.455 5.20973 32.6402 5.6832 32.091 5.97541L31.0927 6.50683L31.5243 7.47377C32.0631 8.68095 32.6386 10.3377 32.9814 11.6682L33.2442 12.6882L34.1023 12.7502C36.8787 12.9509 39.2892 14.3272 40.8214 16.5867C41.343 17.3559 41.8577 18.5151 42.0172 19.2799C42.1225 19.7845 42.1465 19.8174 42.4096 19.8174C42.6884 19.8174 42.6899 19.8143 42.6899 19.2307C42.6899 16.4613 41.434 12.5675 39.626 9.73165C38.5327 8.01679 36.4772 5.72582 35.1131 4.70186L34.7145 4.40264L33.9019 4.92331ZM12.5064 7.64185C11.9308 8.95559 11.5238 10.1231 11.1366 11.5706C10.9266 12.356 10.7547 13.0754 10.7547 13.1691C10.7547 13.2997 10.9025 13.378 11.3852 13.503C14.1289 14.2139 16.4453 16.5716 17.0168 19.235L17.1426 19.8212L19.0514 19.7959L20.9603 19.7707V14.162V8.55326L20.5696 8.53111C18.0835 8.39005 15.9572 7.9836 13.8048 7.23783C13.2961 7.06163 12.8673 6.91739 12.8519 6.91739C12.8364 6.91739 12.681 7.24335 12.5064 7.64185ZM28.6654 7.39376C26.9861 7.94416 25.2985 8.28358 23.5483 8.42286C22.8232 8.48054 22.175 8.5427 22.1078 8.56093C22.0119 8.58701 21.9857 9.79652 21.9857 14.2058V19.8174H23.4886H24.9914L25.0559 19.4668C25.6101 16.4523 28.2582 13.7771 31.4367 13.021C32.0292 12.88 32.1418 12.8222 32.1421 12.6588C32.1435 11.9283 30.3481 6.88056 30.1044 6.92982C30.0705 6.93674 29.4229 7.14548 28.6654 7.39376ZM32.1425 13.8811C29.1913 14.4496 26.9373 16.5006 26.1839 19.3033C26.0366 19.851 25.9617 20.5389 25.904 21.8739C25.8286 23.617 25.8141 23.7122 25.574 24.0485C25.0448 24.7901 25.1525 25.7513 25.8385 26.4079C26.264 26.8152 26.9546 27.075 27.3967 26.994C27.6135 26.9544 27.6587 27.0047 27.8538 27.5042C28.2999 28.6459 29.4589 29.9421 30.5092 30.4737L30.9705 30.7073V31.2917V31.8761H29.6726C28.8223 31.8761 28.1768 31.9254 27.8007 32.0192C26.0528 32.455 24.6937 33.7762 24.2847 35.437C24.1691 35.9062 24.1368 36.6958 24.1357 39.0834C24.1343 42.1021 24.1364 42.134 24.3569 42.4474C24.7149 42.9558 24.8905 42.9971 26.6979 42.9986L28.3337 43V41.4514C28.3337 40.5627 28.3768 39.8259 28.4348 39.7221C28.5593 39.4995 29.0368 39.4798 29.2545 39.6882C29.3819 39.8102 29.408 40.1036 29.408 41.4175V43H33.6074H37.8068V41.3828C37.8068 39.6508 37.8358 39.5413 38.2951 39.5413C38.7544 39.5413 38.7834 39.6508 38.7834 41.3828V43H40.4486C42.2908 43 42.5684 42.9351 42.8347 42.4422C43.0604 42.0244 43.0527 35.9678 42.8254 35.2349C42.3103 33.5729 40.9162 32.3232 39.1937 31.9794C38.909 31.9225 38.107 31.8761 37.4114 31.8761H36.1466V31.3166V30.7572L36.7741 30.3779C37.8726 29.7139 38.8644 28.5445 39.3145 27.3829C39.4635 26.9984 39.5067 26.9597 39.7489 26.9937C40.4494 27.0921 41.3429 26.5882 41.719 25.8827C42.0376 25.2849 41.9159 24.3095 41.463 23.8304C41.3521 23.7132 41.2961 23.2373 41.2262 21.8173C41.1056 19.3688 40.8211 18.3738 39.8477 16.9967C38.1342 14.5728 35.0422 13.3226 32.1425 13.8811ZM7.65063 14.4909C6.49022 14.7819 5.6389 15.264 4.69081 16.1672C3.76889 17.0454 3.28478 17.7834 2.94014 18.8359C2.76864 19.3596 2.70751 19.8717 2.63387 21.4014L2.54178 23.3125L2.14312 23.6393C1.66009 24.0349 1.47688 24.424 1.47688 25.0539C1.47688 25.5423 1.64964 25.9771 1.98218 26.3259C2.17027 26.5231 2.169 26.5373 1.81098 28.1955C1.61253 29.1145 1.42981 30 1.40481 30.1635C1.34601 30.5488 1.52131 31.0479 1.80522 31.3032L2.03023 31.5054L2.48826 31.3115C3.24464 30.9913 4.17428 30.8512 5.55423 30.8494L6.84824 30.8478V31.362V31.8761H5.58343C4.88779 31.8761 4.0858 31.9225 3.80112 31.9794C2.07437 32.324 0.600565 33.6577 0.144879 35.288C-0.0569871 36.0105 -0.0441937 42.0641 0.160113 42.4422C0.424971 42.9325 0.707993 43 2.49744 43H4.11373L4.1152 41.5277C4.11676 39.8843 4.18991 39.6071 4.63465 39.5579C5.15734 39.5001 5.188 39.6007 5.188 41.3755V43H9.38743H13.5869V41.4175C13.5869 39.705 13.6337 39.5413 14.124 39.5413C14.6143 39.5413 14.6611 39.705 14.6611 41.4175V43L16.297 42.9986C18.1044 42.9971 18.28 42.9558 18.6379 42.4474C18.8584 42.134 18.8606 42.1021 18.8591 39.0834C18.858 36.6958 18.8257 35.9062 18.7102 35.437C18.3012 33.7762 16.942 32.455 15.1942 32.0192C14.8181 31.9254 14.1725 31.8761 13.3222 31.8761H12.0243V31.362V30.8478H13.2492C14.5477 30.8478 15.6245 31.0093 16.372 31.316L16.8089 31.4952L17.014 31.2884C17.4525 30.8461 17.5022 30.2981 17.2051 29.1808C17.1002 28.7866 16.9304 28.0139 16.8277 27.4637L16.6407 26.4632L16.8693 26.2578C17.6519 25.554 17.4672 24.0323 16.5353 23.5054L16.2533 23.346L16.187 21.6553C16.1104 19.7045 15.9744 19.0345 15.4436 17.9946C14.5361 16.2167 12.9597 14.9452 11.0978 14.4894C10.0931 14.2435 8.63456 14.2441 7.65063 14.4909ZM0.304945 21.3856C0.304945 21.9421 0.465695 23.3771 0.562185 23.6819C0.607695 23.8256 0.657697 23.7947 0.865422 23.4949C1.00215 23.2974 1.20519 23.0393 1.31662 22.9213C1.48586 22.742 1.52561 22.5541 1.55823 21.7762L1.5973 20.8457H0.951072H0.304945V21.3856ZM17.246 21.8025C17.3144 22.7249 17.3292 22.7724 17.6603 23.1232C18.1815 23.6754 18.4077 24.24 18.4149 25.0072C18.4202 25.567 18.3739 25.755 18.1 26.2879L17.7789 26.9124L18.0264 28.0622C18.1626 28.6946 18.3181 29.3589 18.372 29.5385C18.5909 30.2685 18.4289 31.1814 17.9711 31.7967C17.7928 32.0364 17.7814 32.0983 17.8958 32.2064C18.0023 32.3072 18.1835 32.3161 18.7629 32.2489C19.1658 32.2021 19.836 32.1376 20.2522 32.1056L21.0091 32.0471V26.4464V20.8457H19.0921H17.1751L17.246 21.8025ZM21.9857 26.4464V32.0471L22.7426 32.1086C23.1588 32.1424 23.8222 32.2055 24.2169 32.2488L24.9342 32.3276L25.633 31.8747C26.4377 31.353 27.509 30.9795 28.471 30.8851L29.1406 30.8195L28.743 30.5034C28.2443 30.1069 27.5209 29.1918 27.1498 28.4882C26.9286 28.0687 26.8166 27.95 26.6424 27.95C26.2481 27.95 25.4212 27.4819 24.9735 27.0051C24.1465 26.1247 23.9623 24.8791 24.5012 23.8113C24.7663 23.2861 24.8002 23.1132 24.8492 22.0375L24.9035 20.8457H23.4447H21.9857V26.4464ZM42.3007 21.9908C42.3022 23.1246 42.3991 23.6198 42.531 23.1672C42.566 23.0472 42.6228 22.4757 42.6572 21.8973C42.7186 20.8645 42.716 20.8457 42.5095 20.8457C42.3056 20.8457 42.2992 20.8804 42.3007 21.9908ZM38.5886 21.7343C38.7831 21.9586 38.6633 25.9641 38.4417 26.6413C38.0608 27.8058 37.3909 28.7 36.4006 29.3656C35.046 30.2762 33.3206 30.47 31.703 29.8933C31.1305 29.6893 30.0704 28.9471 29.6854 28.481C28.7261 27.3193 28.5143 26.5274 28.5512 24.2419L28.5779 22.5913L31.0194 22.5741C32.3622 22.5647 33.8784 22.5051 34.3887 22.4416C35.507 22.3025 37.4457 21.9219 37.9666 21.739C38.4522 21.5687 38.4451 21.5687 38.5886 21.7343ZM7.83042 22.7179C8.13678 22.8676 8.40574 22.9022 9.26145 22.9023C10.3805 22.9024 12.0194 23.0234 13.1474 23.1894C14.2803 23.3561 14.173 23.1872 14.1717 24.8014C14.1709 25.7318 14.1224 26.3935 14.0309 26.7225C13.5964 28.2852 12.4155 29.5063 10.8524 30.0092C10.3121 30.1831 10.0615 30.2075 9.17023 30.1732C8.17731 30.1351 8.08024 30.1127 7.30159 29.7434C5.96597 29.1099 5.00831 27.9361 4.70995 26.5666C4.65057 26.2941 4.60204 25.4679 4.60204 24.7304C4.60204 23.2918 4.6077 23.2761 5.12794 23.2761C5.24728 23.2761 5.5764 23.1657 5.85923 23.0308C6.25612 22.8415 6.43328 22.6831 6.63524 22.3367L6.89707 21.888L7.17512 22.2108C7.32795 22.3884 7.62289 22.6166 7.83042 22.7179ZM3.52776 25.0623V25.9138L3.2592 25.8534C2.59256 25.7034 2.32253 24.8886 2.79091 24.4404C2.92275 24.3142 3.14249 24.2109 3.27922 24.2109C3.52737 24.2109 3.52776 24.2124 3.52776 25.0623ZM16.0359 24.4841C16.3543 24.7888 16.3904 25.0271 16.1778 25.4206C16.0337 25.6874 15.4669 25.96 15.3379 25.8246C15.3006 25.7853 15.2924 25.4063 15.32 24.9821C15.3643 24.2963 15.391 24.2109 15.5601 24.2109C15.6648 24.2109 15.8789 24.3338 16.0359 24.4841ZM27.4547 25.1106V26.0103L27.1438 25.9508C26.5302 25.8334 26.2016 25.3373 26.3851 24.8053C26.5137 24.4321 26.8109 24.2109 27.1835 24.2109H27.4547V25.1106ZM40.5815 24.4985C40.9141 24.8768 40.921 25.3516 40.5986 25.6603C40.3383 25.9094 39.8843 26.0565 39.7704 25.9287C39.7302 25.8837 39.7159 25.4787 39.7387 25.0288L39.7801 24.2109H40.0544C40.2407 24.2109 40.4097 24.303 40.5815 24.4985ZM40.6588 27.8955C40.2827 27.9923 40.2031 28.0661 39.8901 28.6077C39.4725 29.3303 38.7191 30.2571 38.2747 30.5948L37.9533 30.839L38.344 30.8475C38.5588 30.8521 38.9218 30.8906 39.1507 30.933L39.5669 31.01L40.0394 30.2045C40.4777 29.4572 41.225 27.9551 41.225 27.8214C41.225 27.7525 41.2036 27.7553 40.6588 27.8955ZM9.48509 31.2685C9.72681 31.2685 10.1553 31.2355 10.4373 31.1952L10.95 31.1218V32.04C10.95 33.0623 10.7495 33.615 10.2531 33.9607C9.83433 34.2526 9.18742 34.275 8.70332 34.0146C8.07623 33.6772 7.92252 33.3028 7.92252 32.1127V31.1267L8.48407 31.1975C8.79287 31.2366 9.24338 31.2685 9.48509 31.2685ZM33.6074 31.2685C33.9028 31.2685 34.3532 31.2377 34.6084 31.2001L35.0723 31.1318V32.1222C35.0723 33.2883 34.9054 33.6843 34.2699 34.0262C33.8079 34.2747 33.1521 34.2467 32.7417 33.9607C32.2453 33.615 32.0448 33.0623 32.0448 32.04V31.1218L32.5575 31.1952C32.8395 31.2355 33.312 31.2685 33.6074 31.2685ZM19.7395 33.1536C18.8239 33.2239 18.8377 33.2094 19.162 33.7687C19.8025 34.8733 19.8666 35.2325 19.9121 37.973L19.9535 40.4709L20.3104 40.5283C20.5067 40.5599 20.7332 40.5927 20.8138 40.601C20.9418 40.6143 20.9603 40.1454 20.9603 36.8772V33.138L20.5696 33.1289C20.3548 33.1239 19.9812 33.135 19.7395 33.1536ZM22.0091 36.8438C22.0312 40.132 22.0534 40.6143 22.181 40.601C22.2616 40.5927 22.4881 40.5599 22.6844 40.5283L23.0413 40.4709L23.0797 37.973C23.117 35.5477 23.1258 35.4539 23.382 34.7488C23.5271 34.3494 23.7546 33.8576 23.8876 33.656C24.178 33.2155 24.1994 33.2267 22.888 33.1347L21.9835 33.0713L22.0091 36.8438Z" fill="#0D99FF"/>
</svg>
