<svg width="43" height="43" viewBox="0 0 43 43" fill="none" xmlns="http://www.w3.org/2000/svg">
<path fill-rule="evenodd" clip-rule="evenodd" d="M20.0699 1.76916L18.7709 3.53823L16.7135 4.22841C15.582 4.60802 14.6424 4.93048 14.6255 4.94489C14.6087 4.95931 15.1661 5.77813 15.8641 6.76438L17.1334 8.55756V10.7309C17.1334 12.6627 17.1483 12.9042 17.2672 12.9042C17.3407 12.9042 18.2954 12.6214 19.3887 12.2758L21.3766 11.6473L23.3763 12.2758C24.4762 12.6214 25.4298 12.9042 25.4954 12.9042C25.5954 12.9042 25.6148 12.5529 25.6148 10.7309V8.55756L26.884 6.76438C27.5821 5.77813 28.1395 4.96049 28.1226 4.94751C28.1057 4.93444 27.1662 4.60768 26.0346 4.22133L23.9773 3.51876L22.8201 1.95209C22.1837 1.09044 21.5968 0.298681 21.5159 0.192714L21.3688 0L20.0699 1.76916ZM5.47399 6.81639L4.18533 8.5627L2.09271 9.2829L0 10.0031L1.25146 11.7733L2.50284 13.5437L2.56506 15.753C2.60226 17.0741 2.65987 17.9624 2.7084 17.9624C2.75299 17.9624 3.68955 17.6778 4.78969 17.3299L6.78995 16.6976L8.80305 17.3299C9.91033 17.6778 10.8583 17.9624 10.9098 17.9624C10.9761 17.9624 11.0033 17.3339 11.0033 15.8034V13.6443L12.2297 11.9096C12.9042 10.9554 13.4735 10.129 13.4948 10.0731C13.5207 10.0055 12.8438 9.74057 11.4733 9.28197L9.41303 8.59255L8.10959 6.82836C7.39271 5.85805 6.79641 5.06553 6.7844 5.06713C6.77248 5.06882 6.18273 5.85594 5.47399 6.81639ZM34.8975 6.81892L33.587 8.59255L31.5268 9.28197C30.1563 9.74057 29.4794 10.0055 29.5053 10.0731C29.5266 10.129 30.0959 10.9554 30.7704 11.9096L31.9968 13.6443V15.8034C31.9968 17.4748 32.0204 17.9622 32.1017 17.9615C32.1595 17.9611 33.1104 17.6772 34.2149 17.3306L36.2232 16.7005L38.2316 17.3314C39.3362 17.6784 40.2696 17.9624 40.3058 17.9624C40.3419 17.9624 40.3993 16.9688 40.4333 15.7544L40.4952 13.5464L41.7476 11.7749L43 10.0033L40.9088 9.28298L38.8175 8.5627L37.5127 6.804L36.2079 5.0453L34.8975 6.81892ZM19.5686 15.402C18.5425 15.592 17.0844 16.0525 16.053 16.5124L15.16 16.9105L15.118 18.5956L15.0761 20.2807L10.6884 20.3025L6.3008 20.3243V23.9722V27.6201L13.8494 28.9968L21.3982 30.3734L28.9227 29L36.4474 27.6265V23.9754V20.3243L32.0597 20.3025L27.6721 20.2807L27.6494 18.611L27.6265 16.9414L26.9008 16.6064C25.9018 16.1451 24.8945 15.7947 23.8513 15.5453C22.6981 15.2696 20.6535 15.2012 19.5686 15.402ZM22.8554 17.9274C23.2415 18.0009 23.907 18.1734 24.3342 18.3107L25.1109 18.5604V19.4416V20.3228H21.3741H17.6373V19.4522V18.5816L18.2935 18.3523C19.8355 17.8134 21.4611 17.662 22.8554 17.9274ZM6.3008 36.5837V43H21.3741H36.4474V36.5931C36.4474 33.0692 36.4277 30.1861 36.4036 30.1861C36.3161 30.1861 22.8814 32.6412 22.7387 32.6832C22.6066 32.7222 22.5917 32.8632 22.5917 34.0697V35.4128H21.3741H20.1565V34.0697C20.1565 32.8639 20.1414 32.7219 20.0095 32.6815C19.9009 32.6481 11.3415 31.0779 6.57371 30.2166L6.3008 30.1673V36.5837Z" fill="#0D99FF"/>
</svg>
