<svg width="38" height="32" viewBox="0 0 38 32" fill="none" xmlns="http://www.w3.org/2000/svg">
<path fill-rule="evenodd" clip-rule="evenodd" d="M16.9557 0.170469L16.655 0.340938V1.74914V3.1574L10.9792 3.17537L5.30335 3.19342L5.0183 3.40846L4.73316 3.62351V6.39447V9.16543L5.06541 9.3893L5.39766 9.61317H11.0263H16.655V11.1934V12.7737L10.8651 12.7766C6.56874 12.7789 5.00687 12.8001 4.81045 12.8589C4.66475 12.9026 3.55768 13.5404 2.35005 14.2763C0.00446769 15.7059 -0.155891 15.8431 0.0794192 16.2196C0.206749 16.4232 4.45983 19.0761 4.81309 19.1723C4.90348 19.197 7.60487 19.2192 10.8162 19.2217L16.655 19.2263V25.4207V31.6151L16.9407 31.8075L17.2263 32H18.9853C20.7351 32 20.7459 31.9991 21.0449 31.8295L21.3456 31.6591V25.4443V19.2294L27.0214 19.2115L32.6973 19.1934L32.9824 18.9784L33.2675 18.7633V16V13.2367L32.9824 13.0216L32.6973 12.8066L27.0214 12.7885L21.3456 12.7706V11.1918V9.61317L27.1844 9.60856C30.3958 9.60599 33.0975 9.5838 33.1884 9.55918C33.2791 9.53455 34.3522 8.90732 35.5728 8.1654C37.9144 6.74199 38.135 6.55947 37.9487 6.19944C37.8349 5.97946 33.6539 3.38337 33.1919 3.24576C32.9943 3.1869 31.431 3.1657 27.1356 3.16346L21.3456 3.16049V1.77271V0.384922L21.06 0.192461L20.7743 0H19.0154C17.2656 0 17.2548 0.000921791 16.9557 0.170469Z" fill="#002E4B"/>
</svg>
