<svg width="34" height="40" viewBox="0 0 34 40" fill="none" xmlns="http://www.w3.org/2000/svg">
<path d="M13.4394 37.4737C14.5841 38.374 15.7779 39.1969 17 40C18.2247 39.2075 19.4127 38.3646 20.5606 37.4737C22.474 35.9759 24.2748 34.3519 25.9496 32.6137C29.8104 28.5892 34 22.755 34 16.206C34 14.0778 33.5603 11.9704 32.706 10.0042C31.8516 8.03803 30.5994 6.25149 29.0208 4.74663C27.4422 3.24176 25.5682 2.04804 23.5056 1.23361C21.4431 0.41918 19.2325 0 17 0C14.7675 0 12.5569 0.41918 10.4944 1.23361C8.43185 2.04804 6.55778 3.24176 4.97918 4.74663C3.40059 6.25149 2.14838 8.03803 1.29405 10.0042C0.439718 11.9704 -3.32664e-08 14.0778 0 16.206C0 22.755 4.18956 28.5874 8.05044 32.6137C9.72517 34.3525 11.5259 35.9753 13.4394 37.4737ZM17 22.0582C15.3719 22.0582 13.8104 21.4416 12.6592 20.3441C11.5079 19.2466 10.8611 17.7581 10.8611 16.206C10.8611 14.6539 11.5079 13.1654 12.6592 12.0679C13.8104 10.9704 15.3719 10.3538 17 10.3538C18.6281 10.3538 20.1896 10.9704 21.3408 12.0679C22.4921 13.1654 23.1389 14.6539 23.1389 16.206C23.1389 17.7581 22.4921 19.2466 21.3408 20.3441C20.1896 21.4416 18.6281 22.0582 17 22.0582Z" fill="#002E4B"/>
</svg>
