<svg width="37" height="36" viewBox="0 0 37 36" fill="none" xmlns="http://www.w3.org/2000/svg">
<path d="M11.0859 16.6937L7.99873 1.40279H7.95198L4.79453 16.6937H3.62512L0 0H0.982311L4.18651 15.2909H4.23325L7.36728 0H8.56L11.7175 15.2909H11.7642L14.9684 0H15.9507L12.3022 16.6937H11.0859ZM17.6347 16.6937V0H25.61V0.888427H18.617V7.55195H25.1422V8.44037H18.617V15.8053H25.8205V16.6937H17.6347ZM27.598 16.6937V0H32.0885C35.0042 0 36.4622 1.38729 36.4622 4.16175C36.4622 5.25282 36.1854 6.11794 35.6318 6.75699C35.0783 7.39604 34.3259 7.7779 33.3749 7.90259V7.94943C34.5443 8.02728 35.4408 8.45209 36.0645 9.22363C36.6882 9.99518 37 10.9733 37 12.1579C37 13.5607 36.5752 14.6674 35.7254 15.478C34.8756 16.2884 33.7101 16.6937 32.2289 16.6937H27.598ZM28.5803 7.55195H31.7845C32.9071 7.55195 33.8037 7.27134 34.4741 6.71025C35.1446 6.14905 35.4798 5.29955 35.4798 4.16175C35.4798 1.91726 34.3884 0.794968 32.2055 0.794968H28.5803V7.55195ZM28.5803 15.8987H31.878C33.2814 15.8987 34.3221 15.6066 35.0003 15.022C35.6786 14.4375 36.0177 13.475 36.0177 12.1345C36.0177 9.6094 34.6223 8.34691 31.8313 8.34691H28.5803V15.8987Z" fill="#0D99FF"/>
<path d="M17.832 35.9999V21.2222H22.1591C23.2495 21.2222 24.119 21.5325 24.7678 22.1535C25.4718 22.8296 25.8237 23.8093 25.8237 25.0925C25.8237 26.0997 25.5684 26.9277 25.0576 27.5761C24.5332 28.266 23.8017 28.6592 22.8631 28.7558V28.7973C23.9811 28.8662 24.7609 29.2389 25.2025 29.9149C25.5476 30.4669 25.7202 31.3154 25.7202 32.4607V34.0129C25.7202 34.7994 25.8859 35.4617 26.2171 35.9999H25.2233C24.9749 35.5308 24.8507 34.8615 24.8507 33.9923V32.4814C24.8507 31.3499 24.6575 30.5289 24.2709 30.0184C23.8155 29.4388 23.0218 29.1491 21.89 29.1491H18.7017V35.9999H17.832ZM18.7017 28.4454H21.4759C23.7947 28.4454 24.9541 27.3277 24.9541 25.0925C24.9541 24.099 24.6954 23.3229 24.1777 22.764C23.6602 22.2053 22.9459 21.9258 22.0349 21.9258H18.7017V28.4454ZM34.5193 30.7014L31.9728 22.0914H31.9314L29.3227 30.7014H34.5193ZM36.0929 35.9999L34.685 31.405H29.1156L27.7078 35.9999H26.8383L31.4345 21.2222H32.5318L36.9624 35.9999H36.0929Z" fill="#0D99FF"/>
<mask id="mask0_2157_12" style="mask-type:luminance" maskUnits="userSpaceOnUse" x="1" y="22" width="14" height="13">
<path d="M11.161 22.8664C14.2283 24.5835 15.2794 28.3868 13.5084 31.3611C11.7375 34.3354 7.81512 35.3544 4.7477 33.6372C1.68038 31.92 0.629345 28.1167 2.4003 25.1425C4.17125 22.1683 8.09359 21.1492 11.161 22.8664Z" fill="white"/>
</mask>
<g mask="url(#mask0_2157_12)">
<path fill-rule="evenodd" clip-rule="evenodd" d="M5.40332 34.2743L6.78536 35.048C7.11927 33.8004 7.98098 32.2753 9.1023 31.5362C9.64896 31.1759 10.4896 30.441 10.9667 30.0073C11.1702 29.8223 11.39 29.6263 11.5706 29.4314C13.4902 27.3592 12.7693 26.1306 13.1564 23.8898L12.1378 23.3196C12.0385 24.0058 11.9554 24.68 11.8048 25.4008C11.6411 26.1839 11.5924 26.7971 11.1357 27.5441C10.7019 28.2537 10.1711 28.907 9.65577 29.5495C9.39281 29.8774 8.45234 31.4402 8.23936 31.4328C8.06231 31.2223 8.3333 30.6544 8.43639 30.3796C8.5764 30.0063 8.73894 29.6343 8.89625 29.2592C9.20628 28.5197 9.51297 27.7404 9.89195 27.0311C10.2143 26.4277 10.4614 25.5221 10.678 24.863C10.7659 24.5956 10.995 24.0007 10.9824 23.7768C10.9642 23.4526 10.9988 23.1008 11.1182 22.7488L10.2466 22.2607C9.94829 23.669 9.89986 23.8169 9.36916 25.1878C8.97188 26.214 8.56111 27.1878 8.03342 28.199C7.74983 28.7425 7.44035 29.156 7.24511 29.7318C7.07453 30.2347 6.96074 30.7031 6.74497 31.2211C6.32282 32.2348 5.80841 33.2568 5.40332 34.2743Z" fill="#0D99FF"/>
<path fill-rule="evenodd" clip-rule="evenodd" d="M7.45605 35.4254L7.96914 35.7126C8.72832 35.1734 8.67355 34.9635 9.23103 34.5215C9.44054 34.3553 9.70427 34.1888 9.88813 34.013C10.5487 33.3812 10.2908 33.4347 11.246 33.1233L13.5039 32.3928L14.4235 30.8484L14.371 30.8596C14.3643 30.8614 14.3528 30.864 14.3455 30.866L13.8372 31.0586C13.4625 31.2043 12.2464 31.7758 12.1455 31.2686C12.1219 31.1231 14.3536 29.8202 14.7357 29.2302C15.1943 28.5216 15.9359 27.3702 16.3349 26.6273C16.5226 26.2784 16.4754 26.1401 16.5616 25.798L15.5129 25.2109C15.2967 25.9307 15.3522 26.0824 14.8271 26.7096C14.6534 26.9171 14.4348 27.1682 14.3002 27.4036C13.613 28.6056 12.7641 29.7899 11.7592 30.7831C10.7088 31.8209 9.37517 32.0742 8.26958 33.8561C7.94036 34.3866 7.62507 34.8367 7.45605 35.4254Z" fill="#0D99FF"/>
<path fill-rule="evenodd" clip-rule="evenodd" d="M-1.02441 30.6769L0.0455889 31.2759C0.204678 30.6856 0.168862 30.3168 0.244725 29.6448C0.288234 29.2591 0.212491 29.4296 0.334095 28.8459C0.491622 28.0892 0.737502 27.051 0.951592 26.3291C1.19089 25.522 1.40264 23.8923 1.49167 23.0251C1.50629 22.8829 1.48932 22.7569 1.50449 22.6302C1.54243 22.315 1.78743 21.7886 1.79234 21.3815C1.79881 20.8442 1.84377 20.2824 2.10237 19.7317C2.35919 19.1849 2.44598 18.5536 2.6555 18.0121L2.04157 17.6684L1.82178 19.0494C1.60914 18.8978 1.60914 17.6918 1.63492 17.4407L0.874729 17.0151C0.842487 17.7015 1.25103 18.7585 1.1485 19.4522C1.10857 19.7224 1.03025 20.0517 1.0346 20.3056C1.05379 21.3968 0.526874 22.63 0.357857 23.7575C0.276527 24.2996 0.220182 24.9405 0.0842983 25.4729C-0.0678738 26.0691 -0.291334 26.6216 -0.411711 27.2291C-0.470058 27.5237 -0.458677 27.7676 -0.53309 28.0814C-0.65659 28.6015 -0.99585 29.5016 -0.976215 29.8304C-0.958923 30.1205 -0.889311 30.3655 -1.02441 30.6769Z" fill="#0D99FF"/>
<path fill-rule="evenodd" clip-rule="evenodd" d="M3.28174 33.0879L4.54151 33.7931C4.80346 33.018 4.85221 33.5098 5.31966 32.1531C5.50742 31.6078 5.6713 31.0414 5.82526 30.4948C6.20903 29.133 6.23749 28.7787 6.12302 27.3082C6.10261 27.0459 6.03433 26.8306 6.07729 26.5618C6.18015 25.9189 6.54127 24.727 6.7297 24.0877C6.89202 23.5365 7.06562 22.9819 7.24133 22.4264C7.42932 21.8321 7.46736 21.3518 7.60447 20.7829L6.79117 20.3276C6.67325 20.8399 6.59304 21.3716 6.47679 21.8892C6.41007 22.1866 6.44957 22.3696 6.38943 22.6645C6.22477 23.4721 5.92143 24.305 5.65111 25.0779C5.47172 25.5908 5.34521 26.1575 5.21546 26.6773C5.03863 27.3854 5.06652 28.2533 4.88914 28.9897C4.54631 30.4127 4.00634 31.7924 3.28174 33.0879Z" fill="#0D99FF"/>
<path fill-rule="evenodd" clip-rule="evenodd" d="M1.08057 31.8552L2.52173 32.6621C3.36894 31.4584 3.40454 30.746 3.73365 29.4559C3.91238 28.7553 4.37425 26.9431 4.46584 26.3093C4.69388 24.7323 5.0511 24.4532 5.48854 23.1066C5.72316 22.3847 5.85045 21.5202 6.00407 20.7603C6.05427 20.5121 6.08194 20.2006 6.14765 19.9671L5.35522 19.5234C4.92894 21.08 4.74408 22.5143 4.27116 24.1256C4.08117 24.7732 3.58951 25.9079 3.51655 26.4668C3.47561 26.7801 3.54578 26.8569 3.4273 27.2197C3.33928 27.489 3.24032 27.7373 3.14672 28.0034C3.04843 28.2825 3.03382 28.5226 2.94445 28.777C2.22833 30.8136 1.71246 30.7319 1.08057 31.8552Z" fill="#0D99FF"/>
<path fill-rule="evenodd" clip-rule="evenodd" d="M4.42861 19.0045L3.49684 18.4829C3.35939 18.9331 3.28352 19.4961 3.1675 19.9646C3.04935 20.4416 2.85211 21.0191 2.81909 21.4746C2.79287 21.8356 2.79533 22.6241 2.67885 22.92C2.48061 23.4237 2.37619 23.9357 2.26027 24.439C2.02923 25.4429 1.88821 26.4554 1.44084 27.455C1.19752 27.9989 0.879786 30.0251 1.18212 30.3638C1.69007 30.4405 1.77743 29.4816 1.86578 29.1587C2.15161 28.1156 2.65899 27.2705 2.7961 26.2425C2.85367 25.8107 2.908 25.2106 3.05459 24.7963C3.23265 24.2936 3.35638 23.8576 3.46002 23.3536L3.72118 21.9097C3.84591 21.4204 4.02207 20.9419 4.16911 20.4546C4.33769 19.8956 4.34259 19.5309 4.42861 19.0045Z" fill="#0D99FF"/>
<path fill-rule="evenodd" clip-rule="evenodd" d="M9.30086 21.7325L8.41974 21.2393C8.30673 21.8363 8.31197 22.3328 8.12098 22.9669C8.00752 23.3435 7.62909 24.1638 7.42616 24.787C7.20694 25.46 6.3508 27.8917 6.9557 28.2181C7.222 28.1696 7.26998 27.7739 7.31806 27.542C7.43732 26.9675 7.77268 26.4294 8.0218 25.8634C8.1675 25.5326 8.18423 25.3501 8.27493 25.0384C8.43647 24.4826 8.64577 23.9397 8.83855 23.3882C9.03345 22.8303 9.13385 22.2808 9.30086 21.7325Z" fill="#0D99FF"/>
<path fill-rule="evenodd" clip-rule="evenodd" d="M8.87451 36.2184L10.0379 36.8697C10.3295 36.5054 10.8838 36.0919 11.2795 36.1289L12.6115 33.8919C12.3944 33.8769 11.8214 34.0785 11.566 34.1884C11.2494 34.3245 10.935 34.4875 10.6199 34.6925C10.1396 35.0052 9.20228 35.6924 8.87451 36.2184Z" fill="#0D99FF"/>
</g>
</svg>
