<svg width="82" height="63" viewBox="0 0 82 63" fill="none" xmlns="http://www.w3.org/2000/svg">
<path fill-rule="evenodd" clip-rule="evenodd" d="M1.79921 45.5948C2.44463 48.5001 2.99607 50.2281 4.06457 52.6657C4.31412 53.2355 4.48589 53.6846 5.14579 53.9124C7.1629 54.6098 7.07167 54.3969 8.09807 57.299C8.58356 58.6711 8.99349 59.9057 10.2228 60.8587C12.5082 62.6307 16.7313 62.845 19.199 61.6956C20.6073 60.2801 21.0671 59.3376 21.2582 56.8349L26.5792 56.8341C28.935 61.0824 28.4115 61.2626 32.4396 62.4738C34.0303 62.7408 37.2156 62.9623 39.8885 62.4029C42.0247 61.9562 42.3319 60.1268 43.4256 58.1849L54.0946 58.6016C55.6939 59.1211 55.5479 59.9667 57.7109 61.6969C58.9855 62.427 61.0506 62.9014 63.381 62.9014C72.3398 62.9014 69.7691 60.7818 71.4298 56.6807C72.1177 54.9828 73.7514 54.2067 74.9779 51.9425C79.9627 42.7397 78.8644 34.7991 76.7815 25.182C76.011 21.6263 73.8873 15.2732 73.591 12.4271C77.3737 11.5175 77.2908 12.4836 78.0743 15.6358C78.906 18.9799 78.4192 21.0372 81.6898 20.918C82.3251 18.8407 81.1224 14.9316 80.1798 12.5286C78.6821 8.71271 76.1856 8.97478 72.0677 9.64105C68.7963 2.4825 43.1215 -3.47534 32.8944 1.89347C21.6602 7.79076 7.36216 20.5951 0.626338 31.6832C0.590668 31.7415 0.561285 31.8003 0.532486 31.8589C0.50354 31.9167 0.47474 31.9758 0.439947 32.034C0.406908 32.2068 0.352957 32.3793 0.32635 32.5507C-0.319806 36.7368 0.96477 40.5713 1.66779 44.7951L1.79921 45.5948Z" fill="#030303"/>
<path fill-rule="evenodd" clip-rule="evenodd" d="M66.449 34.4884L75.3442 33.9239C75.6038 30.865 73.274 18.5278 71.6275 16.9025C70.3781 14.9412 59.4321 12.4722 56.0997 11.6948C45.0991 9.12578 44.4515 10.0464 46.9498 21.287C48.654 28.9532 48.7886 31.7674 57.1558 33.3772C60.174 33.9576 63.2431 34.2869 66.449 34.4884Z" fill="#FEFEFE" stroke="#FEFEFE" stroke-width="0.288" stroke-miterlimit="22.9256"/>
<path fill-rule="evenodd" clip-rule="evenodd" d="M31.2755 45.2436C26.5119 48.326 29.2696 59.8611 33.2777 59.5639C36.0206 59.3611 36.6621 54.7086 36.1722 51.7433C36.0206 49.1987 33.6537 43.7052 31.2755 45.2436Z" fill="#5E5E5E"/>
<path fill-rule="evenodd" clip-rule="evenodd" d="M18.0021 53.6598L26.049 53.9698C25.4473 48.6862 26.6008 40.2709 33.014 42.3481C37.4498 43.7856 38.3996 50.7664 39.1569 54.694C43.9003 55.9175 53.929 55.6946 59.2949 55.4984C66.382 55.239 72.0176 54.7695 73.1718 48.3752C63.7439 51.6957 56.2427 48.3069 48.7711 44.9474C47.5168 44.3067 45.4309 42.6325 45.1083 41.6757C44.7078 40.4889 45.3625 39.5676 46.1276 40.1617C49.7342 42.9618 57.8117 45.7725 60.3423 46.2136C67.8815 47.5297 76.1662 47.5175 75.6866 37.0633L65.0366 37.5223C59.5108 37.6386 51.8119 35.3336 48.3762 32.766C44.9458 29.4059 44.0867 22.3856 43.0245 17.0028C39.7112 0.212153 62.8008 10.9837 69.9706 12.3839C69.1785 6.84352 54.4497 3.7446 47.7293 2.95536C35.2095 1.48386 31.3418 6.07054 24.1558 11.2718C18.1333 15.6307 12.5485 20.8788 7.38206 26.5818C4.58882 29.6648 2.28911 32.1899 3.29796 38.385C3.92643 42.2438 5.20807 48.2198 6.84978 51.1499C8.35889 49.1255 7.72487 45.8836 10.8187 44.9779C15.8093 43.5177 17.2152 50.3307 18.0021 53.6598Z" fill="#378BCA"/>
<path fill-rule="evenodd" clip-rule="evenodd" d="M55.5288 15.1766C52.536 19.6574 53.7738 28.7346 57.9299 28.3722C60.5891 28.1755 60.7539 23.99 60.2787 21.1145C59.777 18.0767 59.1499 16.8971 57.8741 15.3306C56.9723 14.223 56.2689 14.0683 55.5288 15.1766Z" fill="#030303"/>
<path fill-rule="evenodd" clip-rule="evenodd" d="M38.4535 40.4023C39.5702 38.0733 35.1929 16.8684 33.1104 14.4146C27.88 8.25203 12.6398 25.0639 9.04473 29.9909C2.74031 38.63 8.35588 42.689 13.4715 40.8993C19.7578 38.6995 26.7414 35.0281 32.9958 37.7433C35.6499 38.8949 35.9455 40.3859 38.4535 40.4023Z" fill="#030303"/>
<path fill-rule="evenodd" clip-rule="evenodd" d="M36.0923 4.85504C35.7495 5.10912 34.6298 4.1468 35.5773 8.38633C35.7992 9.37971 36.1702 10.6051 36.4014 11.6879C36.7228 13.1959 37.4273 17.8496 39.5437 15.7532C40.4758 14.8294 38.3638 3.17055 36.0923 4.85504Z" fill="#030303"/>
<path fill-rule="evenodd" clip-rule="evenodd" d="M67.5768 17.3779C65.2208 20.9053 66.1953 28.0513 69.4672 27.7659C71.5606 27.6111 71.6902 24.316 71.3163 22.0524C70.9213 19.661 70.4274 18.7324 69.4231 17.4991C68.7131 16.6273 68.1595 16.5054 67.5768 17.3779Z" fill="#030303"/>
<path fill-rule="evenodd" clip-rule="evenodd" d="M9.73507 37.9186C10.1223 38.3569 10.7078 38.5297 11.4586 38.3712C21.6157 35.2222 24.7661 32.2359 35.3384 35.4569C34.9586 32.6517 33.0663 19.7196 30.6682 16.2927C29.8479 15.1206 29.4626 15.4144 28.3773 16.0695C25.224 17.9733 17.2821 24.1211 12.7941 29.8914C10.4672 32.883 9.16741 35.7737 9.73507 37.9186Z" fill="#FEFEFE"/>
<path fill-rule="evenodd" clip-rule="evenodd" d="M11.1116 47.958C7.50062 50.369 10.0879 59.3917 13.2118 59.1592C15.3498 59.0005 15.678 55.3615 15.1842 53.042C14.9707 51.0517 12.9144 46.7547 11.1116 47.958Z" fill="#5E5E5E"/>
</svg>
